<svg xmlns="http://www.w3.org/2000/svg" width="782" height="750" viewBox="0 0 782 750"><style>.a{fill:#FFF;}</style><circle cx="123" cy="51" r="15" class="a"/><circle cx="291.5" cy="319.5" r="24.5" class="a"/><circle cx="558.5" cy="276" r="5.5" class="a"/><circle cx="655" cy="69" r="7" class="a"/><circle cx="619" cy="197" r="21" class="a"/><circle cx="466" cy="118" r="28" class="a"/><circle cx="579" cy="507" r="15" class="a"/><circle cx="260" cy="716" r="28" class="a"/><circle cx="509" cy="347" r="11" class="a"/><circle cx="15" cy="639" r="15" class="a"/><circle cx="13" cy="15" r="7" class="a"/><circle cx="754" cy="28" r="28" class="a"/><circle cx="657.8" cy="635.3" r="12.3" class="a"/><circle cx="759" cy="521" r="11" class="a"/><circle cx="193" cy="537" r="21" class="a"/><circle cx="163.5" cy="268.5" r="18.5" class="a"/><circle cx="26" cy="414" r="16" class="a"/><circle cx="716" cy="288" r="12" class="a"/><circle cx="375" cy="147" r="11" class="a"/><circle cx="259" cy="92" r="20" class="a"/><circle cx="376" cy="518" r="6" class="a"/><circle cx="124" cy="692" r="6" class="a"/><circle cx="559" cy="697" r="15" class="a"/><circle cx="729" cy="743" r="7" class="a"/><circle cx="472" cy="674" r="6" class="a"/><circle cx="427" cy="39" r="6" class="a"/></svg>