<svg xmlns="http://www.w3.org/2000/svg" width="49" height="64" viewBox="0 0 49 64"><path d="M49 24.5C49 11 38 0 24.5 0 11 0 0 11 0 24.5c0 0.2 0 0.4 0 0.6C0 25.2 0 25.3 0 25.4v28.2C0 59.4 3.7 64 8.2 64c4.3 0 7.9-4.3 8.2-9.7C16.6 59.7 20.2 64 24.5 64c4.4 0 7.9-4.3 8.2-9.7C32.9 59.7 36.5 64 40.8 64c4.5 0 8.2-4.6 8.2-10.4V25.4c0-0.1 0-0.2 0-0.4C49 24.9 49 24.7 49 24.5zM20 32.2c-4.6 0-8.3-3.7-8.3-8.3 0-4.6 3.7-8.3 8.3-8.3 4.6 0 8.3 3.7 8.3 8.3C28.3 28.5 24.6 32.2 20 32.2zM38.3 32.2c-4.6 0-8.3-3.7-8.3-8.3 0-4.6 3.7-8.3 8.3-8.3s8.3 3.7 8.3 8.3C46.6 28.5 42.9 32.2 38.3 32.2z"/></svg>