<?xml version="1.0" encoding="utf-8"?>
<!-- Generator: Adobe Illustrator 12.0.0, SVG Export Plug-In . SVG Version: 6.00 Build 51448)  -->
<!DOCTYPE svg PUBLIC "-//W3C//DTD SVG 1.1//EN" "http://www.w3.org/Graphics/SVG/1.1/DTD/svg11.dtd" [
	<!ENTITY ns_svg "http://www.w3.org/2000/svg">
	<!ENTITY ns_xlink "http://www.w3.org/1999/xlink">
]>
<svg  version="1.1" id="Layer_1" xmlns="&ns_svg;" xmlns:xlink="&ns_xlink;" width="733.895" height="703.762"
	 viewBox="0 0 733.895 703.762" overflow="visible" enable-background="new 0 0 733.895 703.762" xml:space="preserve">
<g opacity="0.5">
	<path fill="#401E50" d="M56.818,63.917c4.642-12.713-1.902-26.784-14.616-31.426c-12.713-4.642-26.784,1.901-31.426,14.614
		c-0.064,0.175-0.118,0.352-0.177,0.529c-0.043,0.109-0.094,0.213-0.135,0.326L0.783,74.474c-1.961,5.372-0.11,10.986,4.138,12.537
		c4.083,1.491,8.884-1.322,10.993-6.315c-1.605,5.177,0.254,10.422,4.336,11.913c4.087,1.492,8.895-1.329,11-6.334
		c-1.615,5.185,0.243,10.439,4.332,11.932c4.246,1.551,9.281-1.549,11.242-6.921l9.681-26.513c0.041-0.112,0.069-0.224,0.107-0.336
		C56.681,64.262,56.754,64.092,56.818,63.917z M26.875,61.191c-4.323-1.579-6.548-6.362-4.969-10.687
		c1.578-4.322,6.362-6.548,10.686-4.969s6.548,6.363,4.969,10.686C35.982,60.543,31.199,62.77,26.875,61.191z M44.075,67.472
		c-4.324-1.579-6.548-6.363-4.969-10.687c1.578-4.322,6.361-6.548,10.686-4.969c4.324,1.579,6.548,6.363,4.97,10.686
		C53.183,66.824,48.397,69.05,44.075,67.472z"/>
</g>
<g opacity="0.5">
	<path fill="#401E50" d="M248.797,196.688c-4.348-16.751-21.452-26.807-38.204-22.46c-16.75,4.347-26.807,21.45-22.461,38.2
		c0.06,0.231,0.131,0.456,0.198,0.686c0.034,0.146,0.055,0.292,0.095,0.441l9.064,34.933c1.836,7.077,7.863,11.643,13.459,10.189
		c5.379-1.396,8.389-7.843,6.984-14.629c2.069,6.614,7.835,10.784,13.214,9.389c5.386-1.398,8.396-7.856,6.977-14.654
		c2.065,6.63,7.837,10.811,13.225,9.412c5.595-1.452,8.643-8.37,6.806-15.447l-9.063-34.933c-0.038-0.148-0.091-0.285-0.132-0.432
		C248.901,197.152,248.857,196.92,248.797,196.688z M215.304,215.563c-5.697,1.477-11.511-1.941-12.989-7.639
		c-1.478-5.695,1.94-11.511,7.638-12.989c5.695-1.479,11.512,1.943,12.989,7.638C224.418,208.269,221,214.085,215.304,215.563z
		 M237.966,209.683c-5.697,1.479-11.512-1.941-12.99-7.638c-1.477-5.695,1.94-11.511,7.638-12.99
		c5.697-1.479,11.511,1.942,12.99,7.638C247.081,202.389,243.661,208.205,237.966,209.683z"/>
</g>
<g opacity="0.5">
	<path fill="#401E50" d="M480.2,138.408c6.136-10.854,2.31-24.628-8.545-30.764c-10.854-6.137-24.627-2.313-30.764,8.541
		c-0.085,0.15-0.16,0.302-0.241,0.454c-0.056,0.093-0.117,0.179-0.172,0.276l-12.798,22.636c-2.592,4.585-1.756,9.967,1.872,12.018
		c3.484,1.97,8.272,0.139,10.942-4.082c-2.239,4.463-1.342,9.511,2.144,11.481c3.49,1.972,8.284,0.134,10.952-4.098
		c-2.249,4.468-1.353,9.524,2.138,11.498c3.626,2.049,8.669-0.008,11.261-4.594l12.798-22.636c0.054-0.095,0.096-0.192,0.148-0.289
		C480.021,138.701,480.115,138.558,480.2,138.408z M453.398,131.415c-3.691-2.087-4.991-6.77-2.904-10.461
		c2.086-3.69,6.77-4.991,10.46-2.904c3.69,2.086,4.991,6.771,2.904,10.46C461.772,132.2,457.088,133.502,453.398,131.415z
		 M468.082,139.717c-3.691-2.086-4.991-6.77-2.903-10.462c2.085-3.689,6.768-4.991,10.46-2.905
		c3.692,2.088,4.991,6.771,2.905,10.462C476.456,140.501,471.772,141.803,468.082,139.717z"/>
</g>
<g opacity="0.5">
	<path fill="#401E50" d="M714.471,43.2c-7.991-12.073-24.258-15.382-36.332-7.39c-12.074,7.991-15.384,24.256-7.394,36.33
		c0.11,0.167,0.229,0.326,0.344,0.489c0.066,0.106,0.124,0.216,0.195,0.324l16.664,25.179c3.377,5.101,9.386,7.076,13.419,4.406
		c3.877-2.567,4.507-8.486,1.551-13.475c3.435,4.672,9.131,6.405,13.007,3.839c3.882-2.57,4.51-8.499,1.54-13.492
		c3.435,4.684,9.138,6.424,13.021,3.854c4.032-2.668,4.564-8.971,1.188-14.072l-16.664-25.179c-0.071-0.107-0.149-0.202-0.221-0.306
		C714.681,43.538,714.582,43.367,714.471,43.2z M693.099,67.236c-4.106,2.717-9.636,1.592-12.354-2.515
		c-2.716-4.104-1.592-9.636,2.515-12.353c4.104-2.717,9.636-1.591,12.354,2.514C698.329,58.988,697.205,64.52,693.099,67.236z
		 M709.432,56.425c-4.105,2.718-9.636,1.592-12.354-2.515c-2.717-4.104-1.593-9.635,2.514-12.353
		c4.106-2.718,9.637-1.592,12.354,2.513S713.538,53.709,709.432,56.425z"/>
</g>
<g opacity="0.5">
	<path fill="#401E50" d="M602.551,265.793c-7.457-11.294-22.66-14.405-33.956-6.947c-11.295,7.457-14.406,22.659-6.95,33.953
		c0.104,0.156,0.213,0.305,0.32,0.458c0.063,0.1,0.115,0.202,0.182,0.302l15.552,23.556c3.15,4.771,8.766,6.624,12.539,4.132
		c3.627-2.395,4.223-7.927,1.464-12.593c3.206,4.37,8.529,5.997,12.155,3.602c3.631-2.397,4.225-7.939,1.453-12.609
		c3.206,4.383,8.536,6.015,12.168,3.616c3.772-2.49,4.276-8.382,1.126-13.153l-15.552-23.556c-0.065-0.1-0.139-0.188-0.206-0.286
		C602.747,266.11,602.654,265.949,602.551,265.793z M582.545,288.239c-3.841,2.536-9.009,1.479-11.545-2.363
		c-2.535-3.84-1.479-9.009,2.363-11.546c3.84-2.535,9.01-1.477,11.545,2.364C587.443,280.534,586.387,285.704,582.545,288.239z
		 M597.827,278.151c-3.842,2.537-9.01,1.478-11.546-2.364c-2.535-3.84-1.479-9.009,2.362-11.545
		c3.842-2.537,9.01-1.478,11.546,2.362C602.724,270.445,601.667,275.616,597.827,278.151z"/>
</g>
<g opacity="0.5">
	<path fill="#401E50" d="M344.483,346.626c4.107-16.004-5.539-32.31-21.546-36.418c-16.005-4.107-32.31,5.539-36.417,21.543
		c-0.057,0.222-0.102,0.442-0.152,0.665c-0.039,0.138-0.088,0.27-0.124,0.411l-8.566,33.378c-1.735,6.763,1.191,13.362,6.54,14.733
		c5.14,1.318,10.633-2.677,12.593-8.998c-1.326,6.483,1.565,12.633,6.705,13.95c5.146,1.319,10.647-2.685,12.6-9.021
		c-1.337,6.493,1.555,12.653,6.702,13.973c5.346,1.373,11.089-3,12.824-9.762l8.565-33.379c0.037-0.141,0.056-0.279,0.091-0.421
		C344.357,347.063,344.426,346.847,344.483,346.626z M307.776,346.923c-5.442-1.396-8.722-6.938-7.325-12.382
		c1.396-5.441,6.939-8.723,12.383-7.325c5.441,1.396,8.721,6.941,7.324,12.384C318.762,345.04,313.219,348.322,307.776,346.923z
		 M329.429,352.481c-5.444-1.397-8.722-6.941-7.324-12.385c1.396-5.441,6.938-8.722,12.381-7.325
		c5.445,1.396,8.723,6.94,7.327,12.383C340.417,350.596,334.87,353.878,329.429,352.481z"/>
</g>
<g opacity="0.5">
	<path fill="#401E50" d="M353.557,10.339c-5.921-10.01-18.837-13.323-28.849-7.401c-10.01,5.921-13.323,18.837-7.403,28.846
		c0.082,0.139,0.17,0.271,0.255,0.407c0.049,0.088,0.09,0.178,0.143,0.267l12.349,20.874c2.502,4.229,7.244,6.058,10.587,4.078
		c3.214-1.901,3.96-6.624,1.789-10.745c2.567,3.887,7.066,5.508,10.28,3.605c3.217-1.904,3.962-6.635,1.78-10.76
		c2.566,3.897,7.071,5.524,10.29,3.619c3.344-1.978,4.025-7.013,1.524-11.241l-12.35-20.875c-0.052-0.089-0.111-0.167-0.164-0.256
		C353.711,10.619,353.638,10.477,353.557,10.339z M335.436,28.756c-3.403,2.014-7.794,0.887-9.808-2.518
		c-2.013-3.403-0.888-7.794,2.517-9.809c3.403-2.014,7.796-0.886,9.809,2.518C339.966,22.351,338.841,26.743,335.436,28.756z
		 M348.979,20.745c-3.405,2.015-7.796,0.886-9.809-2.519c-2.014-3.402-0.887-7.794,2.516-9.808c3.405-2.015,7.796-0.887,9.81,2.517
		C353.508,14.338,352.381,18.732,348.979,20.745z"/>
</g>
<g opacity="0.5">
	<path fill="#401E50" d="M69.17,359.97c-9.229-16.565-30.144-22.514-46.713-13.284C5.889,355.915-0.059,376.83,9.17,393.396
		c0.128,0.229,0.265,0.448,0.399,0.673c0.077,0.146,0.14,0.295,0.222,0.44l19.248,34.552c3.9,6.999,11.551,10.181,17.086,7.095
		c5.32-2.965,6.735-10.631,3.371-17.441c4.021,6.443,11.287,9.278,16.605,6.313c5.326-2.968,6.741-10.648,3.358-17.465
		c4.019,6.462,11.293,9.303,16.621,6.334c5.534-3.083,6.859-11.26,2.959-18.26l-19.25-34.553c-0.08-0.146-0.174-0.275-0.256-0.421
		C69.41,360.433,69.297,360.199,69.17,359.97z M38.853,389.226c-5.633,3.14-12.743,1.117-15.882-4.518
		c-3.138-5.632-1.118-12.744,4.518-15.882c5.632-3.14,12.745-1.115,15.883,4.52C46.509,378.978,44.489,386.089,38.853,389.226z
		 M61.268,376.741c-5.636,3.139-12.745,1.114-15.884-4.521c-3.138-5.632-1.117-12.742,4.517-15.881
		c5.636-3.142,12.745-1.116,15.884,4.516C68.923,366.488,66.899,373.604,61.268,376.741z"/>
</g>
<g opacity="0.5">
	<path fill="#401E50" d="M250.375,535.687c6.484-7.791,5.423-19.364-2.369-25.85c-7.792-6.483-19.364-5.423-25.848,2.368
		c-0.089,0.108-0.172,0.219-0.259,0.329c-0.058,0.066-0.12,0.126-0.177,0.195l-13.521,16.248c-2.739,3.293-2.853,7.72-0.249,9.886
		c2.502,2.082,6.598,1.312,9.346-1.677c-2.439,3.245-2.453,7.413,0.049,9.494c2.506,2.084,6.607,1.312,9.355-1.688
		c-2.448,3.247-2.464,7.422,0.042,9.506c2.602,2.167,6.935,1.253,9.674-2.039l13.522-16.249c0.058-0.068,0.104-0.141,0.161-0.21
		C250.19,535.896,250.286,535.794,250.375,535.687z M229.952,526.202c-2.65-2.204-3.01-6.139-0.805-8.788
		c2.204-2.649,6.139-3.011,8.789-0.805c2.649,2.203,3.01,6.14,0.805,8.789C236.536,528.047,232.601,528.409,229.952,526.202z
		 M240.492,534.976c-2.65-2.206-3.01-6.141-0.804-8.79c2.204-2.649,6.138-3.011,8.788-0.806c2.651,2.205,3.01,6.14,0.806,8.789
		C247.078,536.818,243.141,537.18,240.492,534.976z"/>
</g>
<g opacity="0.5">
	<path fill="#401E50" d="M458.786,460.415c-5.587-10.766-18.848-14.965-29.616-9.376c-10.768,5.588-14.965,18.847-9.378,29.614
		c0.078,0.149,0.161,0.292,0.242,0.438c0.047,0.094,0.084,0.19,0.134,0.286l11.654,22.453c2.361,4.55,7.192,6.729,10.79,4.86
		c3.457-1.795,4.508-6.67,2.485-11.088c2.448,4.195,7.04,6.145,10.497,4.35c3.461-1.798,4.512-6.682,2.478-11.104
		c2.446,4.207,7.045,6.161,10.507,4.363c3.597-1.865,4.599-7.069,2.237-11.618l-11.654-22.455c-0.049-0.096-0.106-0.18-0.156-0.274
		C458.93,460.716,458.863,460.563,458.786,460.415z M438.849,478.548c-3.661,1.9-8.169,0.474-10.069-3.188
		c-1.899-3.661-0.474-8.17,3.188-10.069c3.661-1.9,8.17-0.473,10.07,3.189C443.938,472.14,442.511,476.648,438.849,478.548z
		 M453.417,470.989c-3.663,1.9-8.17,0.472-10.07-3.19c-1.9-3.66-0.474-8.169,3.188-10.069c3.663-1.901,8.17-0.473,10.071,3.188
		C458.504,464.578,457.077,469.089,453.417,470.989z"/>
</g>
<g opacity="0.5">
	<path fill="#401E50" d="M701.059,478.374c7.449-14.748,1.531-32.745-13.219-40.196c-14.749-7.45-32.745-1.531-40.195,13.216
		c-0.103,0.205-0.194,0.41-0.291,0.617c-0.068,0.126-0.145,0.244-0.21,0.375l-15.536,30.758c-3.147,6.232-1.707,13.307,3.221,15.795
		c4.736,2.392,10.96-0.33,14.233-6.083c-2.688,6.047-1.187,12.674,3.55,15.065c4.742,2.394,10.977-0.335,14.244-6.104
		c-2.701,6.055-1.2,12.692,3.544,15.086c4.926,2.49,11.474-0.547,14.621-6.778l15.537-30.759c0.066-0.13,0.114-0.262,0.179-0.392
		C700.842,478.773,700.957,478.577,701.059,478.374z M665.145,470.778c-5.015-2.532-7.026-8.65-4.493-13.667
		c2.533-5.014,8.651-7.027,13.668-4.493c5.015,2.531,7.026,8.652,4.492,13.668C676.28,471.3,670.161,473.314,665.145,470.778z
		 M685.099,480.858c-5.018-2.534-7.027-8.652-4.493-13.669c2.532-5.015,8.65-7.027,13.666-4.494
		c5.018,2.534,7.027,8.652,4.496,13.668C696.235,481.378,690.112,483.392,685.099,480.858z"/>
</g>
<g opacity="0.5">
	<path fill="#401E50" d="M487.125,636.067c-3.917-16.051-20.108-25.889-36.163-21.971c-16.053,3.918-25.889,20.108-21.972,36.16
		c0.055,0.223,0.119,0.438,0.18,0.658c0.03,0.14,0.049,0.279,0.084,0.421l8.171,33.477c1.655,6.783,7.347,11.226,12.71,9.915
		c5.154-1.259,8.117-7.371,6.868-13.87c1.885,6.344,7.332,10.405,12.486,9.146c5.16-1.26,8.127-7.384,6.863-13.893
		c1.88,6.357,7.333,10.429,12.495,9.167c5.362-1.308,8.367-7.871,6.712-14.652l-8.171-33.478c-0.034-0.142-0.083-0.272-0.118-0.414
		C487.22,636.512,487.179,636.289,487.125,636.067z M454.888,653.624c-5.457,1.333-10.961-2.011-12.294-7.471
		c-1.332-5.457,2.011-10.963,7.471-12.295c5.457-1.333,10.963,2.014,12.295,7.473C463.692,646.787,460.349,652.294,454.888,653.624z
		 M476.606,648.325c-5.46,1.332-10.963-2.014-12.295-7.473c-1.333-5.458,2.011-10.963,7.469-12.295
		c5.461-1.334,10.964,2.012,12.297,7.47C485.409,641.485,482.063,646.993,476.606,648.325z"/>
</g>
<g opacity="0.5">
	<path fill="#401E50" d="M708.965,633.54c3.588-13.978-4.838-28.219-18.817-31.807c-13.979-3.588-28.219,4.837-31.806,18.814
		c-0.05,0.194-0.089,0.387-0.134,0.581c-0.034,0.12-0.076,0.235-0.107,0.359l-7.481,29.151c-1.516,5.906,1.041,11.67,5.711,12.868
		c4.489,1.151,9.287-2.338,10.999-7.859c-1.158,5.663,1.366,11.033,5.855,12.184c4.494,1.152,9.3-2.344,11.004-7.878
		c-1.167,5.671,1.358,11.051,5.854,12.203c4.669,1.199,9.686-2.62,11.201-8.525l7.48-29.152c0.032-0.123,0.049-0.244,0.079-0.367
		C708.855,633.921,708.917,633.732,708.965,633.54z M676.907,633.799c-4.753-1.219-7.617-6.06-6.397-10.813
		c1.22-4.753,6.062-7.618,10.815-6.398c4.752,1.219,7.617,6.063,6.396,10.816C686.501,632.154,681.661,635.021,676.907,633.799z
		 M695.818,638.653c-4.755-1.22-7.617-6.063-6.396-10.816c1.219-4.752,6.06-7.617,10.813-6.397c4.756,1.22,7.618,6.062,6.399,10.814
		C705.414,637.007,700.57,639.873,695.818,638.653z"/>
</g>
<g opacity="0.5">
	<path fill="#401E50" d="M305.585,652.263c2.84-12.276-4.812-24.534-17.092-27.375c-12.277-2.84-24.533,4.813-27.373,17.089
		c-0.04,0.171-0.07,0.34-0.104,0.511c-0.027,0.105-0.063,0.207-0.087,0.315l-5.922,25.604c-1.2,5.189,1.152,10.167,5.254,11.114
		c3.944,0.912,8.059-2.234,9.438-7.09c-0.894,4.968,1.423,9.603,5.366,10.514c3.946,0.913,8.068-2.24,9.442-7.106
		c-0.902,4.976,1.416,9.619,5.365,10.531c4.101,0.949,8.399-2.489,9.599-7.677l5.922-25.605c0.025-0.108,0.037-0.215,0.062-0.322
		C305.497,652.598,305.546,652.432,305.585,652.263z M277.604,653.157c-4.174-0.964-6.776-5.131-5.81-9.307
		c0.966-4.174,5.132-6.777,9.308-5.812c4.174,0.966,6.776,5.134,5.81,9.31C285.946,651.522,281.78,654.126,277.604,653.157z
		 M294.215,657.001c-4.176-0.967-6.776-5.134-5.81-9.308c0.964-4.176,5.131-6.778,9.306-5.813c4.178,0.965,6.777,5.133,5.813,9.307
		C302.557,655.362,298.389,657.966,294.215,657.001z"/>
</g>
<g opacity="0.5">
	<path fill="#401E50" d="M85.373,639.517c-4.273-17.511-21.937-28.243-39.452-23.969c-17.513,4.274-28.243,21.938-23.97,39.449
		c0.06,0.242,0.13,0.478,0.196,0.718c0.033,0.152,0.053,0.305,0.092,0.459l8.914,36.521c1.806,7.4,8.015,12.246,13.866,10.816
		c5.623-1.373,8.855-8.041,7.493-15.132c2.056,6.921,7.999,11.353,13.622,9.978c5.629-1.374,8.866-8.055,7.488-15.156
		c2.051,6.936,8,11.378,13.631,10.001c5.85-1.427,9.128-8.587,7.322-15.985l-8.914-36.521c-0.037-0.155-0.09-0.298-0.129-0.452
		C85.477,640.001,85.432,639.759,85.373,639.517z M50.204,658.67c-5.953,1.454-11.958-2.193-13.412-8.15
		c-1.453-5.953,2.194-11.96,8.15-13.413c5.953-1.454,11.96,2.197,13.413,8.152C59.808,651.211,56.162,657.219,50.204,658.67z
		 M73.897,652.89c-5.957,1.453-11.96-2.197-13.413-8.152c-1.455-5.955,2.193-11.96,8.148-13.413
		c5.958-1.456,11.961,2.194,13.415,8.148C83.5,645.428,79.85,651.437,73.897,652.89z"/>
</g>
</svg>
