<svg xmlns="http://www.w3.org/2000/svg" viewBox="0 0 1280 28.9"><path d="m0 28.9h1280v-10.5l-17-17c-1.9-1.9-5.1-1.9-7.1 0l-11.7 11.7c-1.9 1.9-5.1 1.9-7.1 0l-11.7-11.7c-1.9-1.9-5.1-1.9-7.1 0l-11.7 11.7c-1.9 1.9-5.1 1.9-7.1 0l-11.7-11.7c-1.9-1.9-5.1-1.9-7.1 0l-11.7 11.7c-1.9 1.9-5.1 1.9-7.1 0l-11.7-11.7c-1.9-1.9-5.1-1.9-7.1 0l-11.7 11.7c-1.9 1.9-5.1 1.9-7.1 0l-11.7-11.7c-1.9-1.9-5.1-1.9-7.1 0l-11.7 11.7c-1.9 1.9-5.1 1.9-7.1 0l-11.7-11.7c-1.9-1.9-5.1-1.9-7.1 0l-11.7 11.7c-1.9 1.9-5.1 1.9-7.1 0l-11.7-11.7c-1.9-1.9-5.1-1.9-7.1 0l-11.7 11.7c-1.9 1.9-5.1 1.9-7.1 0l-11.7-11.7c-1.9-1.9-5.1-1.9-7.1 0l-11.7 11.7c-1.9 1.9-5.1 1.9-7.1 0l-11.7-11.7c-1.9-1.9-5.1-1.9-7.1 0l-11.7 11.7c-1.9 1.9-5.1 1.9-7.1 0l-11.7-11.7c-1.9-1.9-5.1-1.9-7.1 0l-11.7 11.7c-1.9 1.9-5.1 1.9-7.1 0l-11.7-11.7c-1.9-1.9-5.1-1.9-7.1 0l-11.7 11.7c-1.9 1.9-5.1 1.9-7.1 0l-11.7-11.7c-1.9-1.9-5.1-1.9-7.1 0l-11.7 11.7c-1.9 1.9-5.1 1.9-7.1 0l-11.7-11.7c-1.9-1.9-5.1-1.9-7.1 0l-11.7 11.7c-1.9 1.9-5.1 1.9-7.1 0l-11.7-11.7c-1.9-1.9-5.1-1.9-7.1 0l-11.7 11.7c-1.9 1.9-5.1 1.9-7.1 0l-11.7-11.7c-1.9-1.9-5.1-1.9-7.1 0l-11.7 11.7c-1.9 1.9-5.1 1.9-7.1 0l-11.7-11.7c-1.9-1.9-5.1-1.9-7.1 0l-11.7 11.7c-1.9 1.9-5.1 1.9-7.1 0l-11.7-11.7c-1.9-1.9-5.1-1.9-7.1 0l-11.7 11.7c-1.9 1.9-5.1 1.9-7.1 0l-11.7-11.7c-1.9-1.9-5.1-1.9-7.1 0l-11.7 11.7c-1.9 1.9-5.1 1.9-7.1 0l-11.7-11.7c-1.9-1.9-5.1-1.9-7.1 0l-11.7 11.7c-1.9 1.9-5.1 1.9-7.1 0l-11.7-11.7c-1.9-1.9-5.1-1.9-7.1 0l-11.7 11.7c-1.9 1.9-5.1 1.9-7.1 0l-11.7-11.7c-1.9-1.9-5.1-1.9-7.1 0l-11.7 11.7c-1.9 1.9-5.1 1.9-7.1 0l-11.7-11.7c-1.9-1.9-5.1-1.9-7.1 0l-11.7 11.7c-1.9 1.9-5.1 1.9-7.1 0l-11.7-11.7c-1.9-1.9-5.1-1.9-7.1 0l-11.7 11.7c-1.9 1.9-5.1 1.9-7.1 0l-11.7-11.7c-1.9-1.9-5.1-1.9-7.1 0l-11.7 11.7c-1.9 1.9-5.1 1.9-7.1 0l-11.7-11.7c-1.9-1.9-5.1-1.9-7.1 0l-11.7 11.7c-1.9 1.9-5.1 1.9-7.1 0l-11.7-11.7c-1.9-1.9-5.1-1.9-7.1 0l-11.7 11.7c-1.9 1.9-5.1 1.9-7.1 0l-11.7-11.7c-1.9-1.9-5.1-1.9-7.1 0l-11.7 11.7c-1.9 1.9-5.1 1.9-7.1 0l-11.7-11.7c-1.9-1.9-5.1-1.9-7.1 0l-11.7 11.7c-1.9 1.9-5.1 1.9-7.1 0l-11.7-11.7c-1.9-1.9-5.1-1.9-7.1 0l-11.7 11.7c-1.9 1.9-5.1 1.9-7.1 0l-11.7-11.7c-1.9-1.9-5.1-1.9-7.1 0l-11.7 11.7c-1.9 1.9-5.1 1.9-7.1 0l-11.7-11.7c-1.9-1.9-5.1-1.9-7.1 0l-11.7 11.7c-1.9 1.9-5.1 1.9-7.1 0l-11.7-11.7c-1.9-1.9-5.1-1.9-7.1 0l-11.7 11.7c-1.9 1.9-5.1 1.9-7.1 0l-11.7-11.7c-1.9-1.9-5.1-1.9-7.1 0l-11.7 11.7c-1.9 1.9-5.1 1.9-7.1 0l-11.7-11.7c-1.9-1.9-5.1-1.9-7.1 0l-17 17v10.5z"/></svg>
 