<svg xmlns="http://www.w3.org/2000/svg" width="1280" height="300" viewBox="0 0 1280 300"><style>.a{opacity:0.2;}</style><g class="a"><path d="M1280 142c-0.6-2.2-1.5-4.6-2.4-6.2l-16.2-29.4c-1.3-2.4-2.4-2.1-2.3 0.6l0.7 38.5c0 2.8-0.2 5.1-0.5 5.3 -0.3 0.2-1.9-1.5-2.6-4.2l-4.3-15.8c-0.7-2.7-2.5-2.9-3.9-0.5l-18.7 31.3c-1.4 2.4-3.1 4.5-3.8 4.8 -0.7 0.3-1.7-1-0.8-3.6l6.2-18.1c0.9-2.6 0.4-2.8-1-0.5l-14.3 23.4c-1.4 2.3-3.5 4.7-4.6 5.1 -1.1 0.5-4.2-0.5-4.4-3.3l-1.8-25.6c-0.2-2.7-0.6-2.7-0.8 0l-2.6 28.2c-0.3 2.7-1.2 5.3-2.2 5.7 -0.9 0.4-4.1-0.7-4.8-3.4l-4.6-16.7c-0.7-2.7-1.3-2.6-1.4 0.2l-0.2 19.5c0 2.8-2.1 5.8-4.7 6.9l-14.8 5.9c-2.6 1-5.5-0.3-6.5-2.8l-8.9-22.8c-1-2.6-2.1-2.4-2.4 0.3l-3.1 28.6c-0.3 2.7-2.7 5.8-5.2 6.7l-21.9 8c-2.6 0.9-5.2-0.5-5.9-3.2l-7.1-30.2c-0.6-2.7-1.4-2.6-1.7 0.1l-3.7 34.9c-0.3 2.7-2.7 5.7-5.3 6.6l-28.8 9.4c-2.6 0.8-5.6-0.6-6.6-3.2l-18.4-48c-1-2.6-2-2.4-2.2 0.3l-4.7 55.6c-0.2 2.7-2.6 5.6-5.2 6.4l-11.6 3.3c-2.6 0.7-5.8-0.7-7.1-3.1l-20.8-41.7c-1.2-2.5-2.9-2.3-3.6 0.3L973.5 248.1c-0.8 2.6-3.1 5.2-5.3 5.7 -2.1 0.5-8.4-0.3-9.2-2.9l-13.6-45.1c-0.8-2.6-2.1-2.6-3 0l-17.6 53.5c-0.9 2.6-2.1 4.9-2.7 5s-2.7-1.7-3.1-4.4l-11.1-62.9c-0.5-2.7-1.7-2.8-2.8-0.3l-29.7 72.5c-1 2.5-2.6 4.8-3.5 4.9s-3.1-1.7-3-4.4l5.9-123.6c0.1-2.7-0.1-2.8-0.5 0l-18.7 126c-0.4 2.7-2 5.1-3.4 5.4s-6.6-1.1-8-3.4l-31.6-53.6c-1.4-2.4-1.8-2.2-0.9 0.4l19.3 54.9c0.9 2.6 0.5 4.9-1 5.1 -1.5 0.2-7.1-0.6-9.3-2.2l-62.6-46.6c-2.2-1.6-3.6-0.8-3.1 1.9l9.7 50c0.5 2.7 0.5 5 0 5 -0.5 0.1-3.1-1.7-4.6-4l-39.4-62.7c-1.5-2.3-2.9-2-3.1 0.7l-5.6 65.4c-0.2 2.7-0.9 5-1.4 5 -0.5 0-2.7-2-3.7-4.6l-24.2-66.2c-0.9-2.6-2.2-2.5-2.9 0.2l-15.8 67.9c-0.6 2.7-1.5 4.9-1.9 4.9 -0.4 0-2.3-2.1-3.2-4.7l-31.3-93.3c-0.9-2.6-1.7-2.5-1.7 0.3l-2.7 93.3c-0.1 2.7-0.3 5-0.6 5s-1.5-2.1-2.4-4.8l-18.7-58.8c-0.8-2.6-2.4-2.7-3.6-0.2l-25.9 58.1c-1.1 2.5-2.5 4.6-3 4.5 -0.5 0-2.3-2.3-2.8-5l-8.4-50.3c-0.5-2.7-2.1-3.1-3.8-0.9l-35.3 48.8c-1.6 2.2-3.6 4-4.4 3.9 -0.8-0.1-2.5-2.5-2-5.2l20.6-112.7c0.5-2.7 0-2.9-1.2-0.4l-50.4 110.3c-1.1 2.5-2.5 4.5-3 4.5 -0.5-0.1-1.5-2.4-1.2-5.2l3.1-28.1c0.3-2.7-1-3.4-3-1.4l-27.2 27.2c-1.9 1.9-4.4 3.4-5.5 3.3 -1.1-0.2-4-2.8-4.1-5.6l-1.5-48.4c-0.1-2.7-1.4-3.1-2.9-0.8l-29.6 44.3c-1.5 2.3-4.2 3.9-5.9 3.6s-7.2-3.1-8.4-5.6l-10.2-21c-1.2-2.5-4.2-3.5-6.7-2.3l-30.8 14.8c-2.5 1.2-5.5 1.9-6.6 1.7 -1.2-0.3-3.5-3.1-2.6-5.7l21.9-63.2c0.9-2.6-0.1-3.3-2.3-1.6l-68.8 53.7c-2.2 1.7-4.6 2.9-5.4 2.7s-2.4-3-1.9-5.7l14.1-73.9c0.5-2.7-0.2-3-1.7-0.7l-41.1 66.5c-1.4 2.3-3.3 4-4.1 3.8 -0.8-0.3-2.8-3.2-2.5-5.9l4.9-48.6c0.3-2.7-0.7-3.1-2.3-0.8l-28 41.6c-1.5 2.3-3.3 4-4 3.7 -0.7-0.2-2.1-3-1.6-5.7l6.4-34.8c0.5-2.7-0.7-3.4-2.7-1.4l-29.2 28.1c-2 1.9-5.7 2.7-8.3 1.8l-12.6-4.6c-2.6-1-5.2-3.9-5.8-6.6l-4.5-20.2c-0.6-2.7-2.8-3.5-5-1.8l-15.2 12.1c-2.2 1.7-6 2.3-8.5 1.2s-7.9-5.7-6.6-8.1l22.8-40.9c1.3-2.4 0.3-3.5-2.2-2.5L76.7 172.2c-2.6 1-5.1 1.6-5.6 1.4 -0.5-0.3-0.7-2.8 0.8-5.1l3.4-5.3c1.5-2.3 0.5-3.7-2.2-3.1l-15.4 3.5c-2.7 0.6-6.9 0.1-9.3-1.2l-11-5.6c-2.4-1.3-4.6-4.6-4.8-7.3l-1.3-19.5c-0.2-2.7-1.4-3-2.6-0.5l-6.9 13.3c-1.3 2.4-2.9 4.1-3.7 3.7s-3.1-3.7-3.7-6.4l-7.4-34.2c-0.6-2.7-1.2-2.6-1.4 0.1l-2 26.9c-0.2 2.7-1.1 4.5-2 4 -0.5-0.3-1.2 0.2-1.6 1.3V300h1280V142z"/></g><g class="a"><path d="M28.9 0.3L5 1.7C2.2 1.8 0.8 4 1.9 6.6l17.3 42.7C20.2 51.8 21 51.6 21 48.9V14.4c0-2.7 1.2-3.1 2.6-0.7l19.9 33.4c1.4 2.4 3.3 2.2 4.1-0.4l8.8-26.3c0.9-2.6 2.6-2.7 3.9-0.3l32.4 62.8c1.3 2.4 2.2 2.2 2.1-0.6l-2.2-57.9c-0.1-2.7 0.5-4.9 1.3-4.8s3.9 2.4 5.1 4.9l24 52.1c1.2 2.5 3.2 2.6 4.5 0.2l25.5-46c1.3-2.4 3.6-4.3 5.1-4.1 1.5 0.1 5.6 2.8 5.8 5.5l6.6 63.8c0.3 2.7 1.5 2.9 2.6 0.4l28.3-61c1.2-2.5 3-4.5 4-4.4s4.9 2.3 6.3 4.7l45.8 80.6c1.4 2.4 2.9 2.1 3.4-0.6l13.7-74.4c0.5-2.7 1.4-4.9 2-4.8 0.6 0 2.6 2.4 3.1 5.1l7.4 38.4c0.5 2.7 2.7 3.5 4.8 1.7l44.5-37.8c2.1-1.8 6.1-3.1 8.8-2.9l14.5 0.8c2.7 0.2 4.7 2.5 4.3 5.2l-5.2 37.9c-0.4 2.7 0.6 3.1 2.2 0.9l27.1-38.2c1.6-2.2 4.8-4 7.1-3.9s9 2.6 9.7 5.3l19 73.1c0.7 2.7 1.7 2.6 2.2-0.1l13.4-71.3c0.5-2.7 2.7-4.8 4.9-4.7 2.2 0.1 8.7 2.4 9.7 5l32.3 82.4c1 2.6 1.8 2.4 1.9-0.3l0.7-80.3c0-2.7 1.8-4.9 3.9-4.9s8.7 2.3 10 4.7l39 73.6c1.3 2.4 2.5 2.2 2.6-0.6l3.4-70.9c0.1-2.7 0.3-5 0.4-5 0.1 0 0.7 2.2 1.2 4.9l11.8 62.4c0.5 2.7 2.2 3 3.7 0.7l41.3-62.5c1.5-2.3 4-4.1 5.5-4.1 1.5 0 5.1 2.3 4.6 5l-9.3 53.4c-0.5 2.7 0.2 3 1.6 0.5l29.8-54.1c1.3-2.4 4.7-4.3 7.4-4.3l8.2 0.1c2.8 0 5.6 2.2 6.3 4.9l12.6 48c0.7 2.7 1.9 2.7 2.6 0l13.1-47.7c0.7-2.7 3.6-4.8 6.3-4.8l5.1 0c2.8 0 5.6 2.2 6.4 4.8l23.4 79.8c0.8 2.6 1.4 2.5 1.5-0.2l1.5-79.4c0.1-2.7 0.7-5 1.5-5 0.8 0 3.2 2.2 3.7 4.9l21.3 108c0.5 2.7 0.9 2.7 0.9-0.1l-2.3-107.8c-0.1-2.7 1.2-5 2.7-5s6.4 2.1 7.4 4.6l29.5 76.4c1 2.6 2.7 2.6 3.9 0.1l35.9-77.6c1.2-2.5 3.2-4.6 4.6-4.6 1.4 0 5 2.1 4.9 4.9l-1.4 68.2c-0.1 2.8 1 3 2.4 0.6l40.1-70.7c1.4-2.4 4.4-4.4 6.7-4.5 2.4-0.1 8.7 2 9 4.7l4.3 45.2c0.3 2.7 0.9 2.8 1.4 0.1l8.7-45.9c0.5-2.7 3.2-5 5.9-5.1l5.3-0.2c2.7-0.1 6.2 1.7 7.8 4l41.7 62.8c1.5 2.3 2.7 1.9 2.6-0.8l-2.3-63.4c-0.1-2.7 0.2-5 0.8-5.1 0.5 0 2.6 2 3.5 4.6l26.6 77.6c0.9 2.6 2.2 2.6 3-0.1l22.4-81.1c0.7-2.6 2.6-4.9 4.1-5 1.6-0.1 6.3 1.7 7.2 4.3l17.3 52.3c0.9 2.6 1.4 2.5 1.1-0.2l-5.3-53c-0.3-2.7 0-5 0.5-5.1s3 1.8 4.3 4.3l18.6 35.8c1.3 2.4 3 2.3 3.9-0.3l13-39c0.9-2.6 2.7-4.9 4-5 1.3-0.1 4.7 1.7 4.5 4.5l-4.7 72.7c-0.2 2.7 0.3 2.8 1 0.2l21.1-75.2c0.7-2.6 2.2-4.9 3.2-5 1-0.1 4.2 1.7 4.7 4.4l9.6 44.9c0.6 2.7 1.7 2.7 2.5 0.1l15.5-49.3c0.8-2.6 2.4-4.9 3.4-5.1 1.1-0.2 4.8 1.4 6 3.9l16.4 34.6c1.2 2.5 2.1 2.3 2.1-0.5V29.2c0-2.7 0.8-5.1 1.8-5.3 1-0.2 5.3 0.7 7.5 2.3l16.7 12.4c2.2 1.6 3.9 0.7 3.7-2l-0.8-12.8c-0.2-2.7 0.4-5.1 1.4-5.3 0.9-0.2 4.6 1.1 6.1 3.4l9.8 14.4c1.5 2.3 3 1.9 3.2-0.9l1.2-16.7c0.2-2.7 0.4-5 0.5-5s0.6 2.2 1.1 4.9l5.1 31.7c0.4 2.7 1.4 2.8 2.2 0.1l11.1-37.5c0.8-2.6 1.6-4.8 1.8-4.9s0.9 2 1.1 4.8l1.3 22.7c0.2 2.7 1.1 2.9 2.2 0.4l12.2-29.1c0.5-1.3 1.2-2.5 1.9-3.5V0H28.9C31.6 0 31.6 0.1 28.9 0.3z"/></g></svg>